PathFileType	4	(X/Y/Z)	C:\Users\avatar\Documents\avatar\mocap1\10002-20130626160334-Unnamed.trc
DataRate	CameraRate	NumFrames	NumMarkers	Units	OrigDataRate	OrigDataStartFrame	OrigNumFrames
400.00	400.00	       99	0	mm	400.00	442	       882
Frame#	Time	
		

442	1.102							22.55739	1435.90515	-336.67673	-241.49974	1382.09277	-156.79182	-8055.30176	861.62506	-320.88181	
443	1.105	-7989.39551	843.29633	-321.13022				21.85834	1436.97522	-339.40271	-247.02260	1380.21643	-157.90332	
444	1.107				-7923.29932	825.38171	-320.40164	21.41794	1438.33472	-342.22726	-250.98540	1380.08838	-159.56985	
445	1.110				-7854.94043	807.58154	-320.68668	20.30582	1439.35059	-344.82278	
446	1.112							20.76905	1440.40149	-348.16013	
447	1.115	-1388.29065	265.17142	558.06177				19.27330	1440.92065	-350.58078	
448	1.117				-1390.87390	265.99026	553.03326	18.51704	1441.50623	-353.08829	
449	1.120							20.14825	1442.65881	-356.48096	
450	1.122	-7527.53271	785.19922	-321.17783				18.05663	1443.20288	-358.62854	
451	1.125				-7465.27441	767.57947	-320.99097	17.90848	1443.71716	-361.95502	
452	1.128	-7402.06006	748.00946	-321.37122				18.21012	1444.15747	-364.41483	-91.12368	1360.64807	-176.43709	
453	1.130	-7335.20654	727.42047	-320.69293	-271.23703	75.44579	245.59081	12.69648	1443.29333	-366.98840	
454	1.133	-7271.77637	708.21301	-319.32178				11.69476	1443.56860	-369.17502	-270.40155	75.35050	243.75667	-91.52145	1363.09351	-178.55461	
455	1.135	-7200.48877	688.64087	-319.04114	-269.40369	75.68771	242.05653	12.81880	1443.71594	-371.71838				-130.89957	1381.85840	-196.95015	
456	1.138							11.71955	1443.89136	-374.15820	-268.01471	75.39256	240.39868				44.06407	1279.01013	71.41626	
457	1.140	-7064.83887	710.05872	-315.28033				12.19736	1443.86523	-376.84418							43.83423	1278.48352	71.25748	
458	1.143				-7003.44385	691.37592	-315.47165	10.27325	1443.08691	-378.81787	
459	1.145	-6941.84570	671.54077	-315.16299				9.13940	1442.62451	-380.75259	
460	1.148	-6879.23242	650.34113	-314.77502	-165.54190	231.93193	154.58023	8.17544	1442.13574	-384.10736	
461	1.150	-6815.40479	630.30524	-314.28827				2.55351	1440.55432	-386.99326	
462	1.153	-6745.70459	609.88544	-312.99298	
463	1.155	
464	1.158	16.23279	1439.30151	-391.66690	
465	1.160				12.54973	1438.71191	-392.75504	
466	1.163	-1402.59399	266.81378	557.68604	12.34761	1437.12000	-395.47595	
467	1.165				9.53447	1435.79919	-397.06250	-6414.32617	567.60309	-292.68707	
468	1.168	-1416.34424	271.67108	569.09967	8.54438	1433.90698	-399.15506	
469	1.170				8.77478	1432.66162	-401.07397	
470	1.173	-1416.18677	272.87839	566.04736	10.55817	1430.65576	-402.33405	
471	1.175	-1419.48328	270.37759	566.28442	9.83128	1428.53223	-403.64386	222.48831	924.44470	-295.71030	
472	1.178	-1421.13770	270.29330	565.52234	12.02736	1426.36951	-405.09341				224.72098	923.31494	-297.68253	
473	1.180	-1421.49719	270.14722	564.11823	11.82277	1424.09534	-406.60974				226.24245	921.74786	-299.15869	
474	1.183	-1422.49158	271.15164	563.11847				471.57373	1434.66956	-333.67563	227.57579	919.53589	-300.20837	-79.10412	1211.60522	-315.09952	
475	1.185	-1424.71326	270.06448	563.01044	470.67130	1433.06372	-334.09296				229.24971	918.02899	-302.27032	-78.35521	1211.12146	-317.05646	
476	1.188	-1425.84851	269.74768	562.10834				470.52103	1430.40759	-338.17767	231.23836	916.37915	-303.94650	-77.18776	1210.72437	-319.02933	
477	1.190	-1425.09351	272.61032	560.22461	423.71722	1218.45947	-456.21417	466.67038	1428.36279	-339.12085	
478	1.192	-1429.29333	269.54608	559.74841							187.15231	1438.45288	-69.17326	425.50320	1218.05737	-458.67953	
479	1.195				187.24893	1438.74402	-69.94301	427.77353	1217.76941	-461.08533							-375.38202	93.77605	100.85569	
480	1.197	186.87363	1438.81970	-70.89265							429.98306	1217.49658	-463.46338				-371.28036	93.94314	96.34262	
481	1.200				186.57516	1438.99121	-71.74094	432.68701	1217.60461	-465.96371							-368.32764	93.38039	92.14137	
482	1.202	186.38597	1439.10828	-72.59032							196.22406	383.02811	-178.51871	68.20454	28.84857	196.24121				434.87430	1217.86279	-468.60327	
483	1.205				185.93214	1439.46008	-73.65739	195.47946	381.28027	-178.57700							69.75537	32.04642	194.83484	436.87793	1217.56445	-471.02390	
484	1.207	194.75327	378.71970	-178.86989	185.76175	1439.62073	-74.52689				72.12523	36.06099	193.23460	
485	1.210				185.62836	1439.85986	-75.41078	194.87733	377.98264	-180.59119				74.20470	38.45129	192.58943	
486	1.212				185.56844	1440.12793	-76.38627							75.41053	40.46958	191.89363	
487	1.215	815.84467	1482.60571	-530.69446	184.85173	1440.26221	-77.46749	
488	1.217				184.38179	1440.67261	-78.79051	816.53735	1484.05164	-531.43646	
489	1.220	817.27313	1485.51880	-532.53784	184.12508	1441.08167	-79.70384				537.76520	1380.38074	-326.04568	
490	1.222	818.52319	1487.47705	-533.80872	183.80376	1441.30481	-80.71246				541.71033	1371.64624	-324.61069	
491	1.225	819.33160	1489.06860	-534.66016	183.59665	1441.74927	-81.93169	-114.54696	551.93573	183.16785	
492	1.227	819.45258	1489.78381	-535.23450	183.27502	1441.85144	-83.18690				-114.25223	551.61865	182.40077	
493	1.230	820.20587	1491.54114	-536.38098	183.35486	1442.31799	-84.34966	-114.55463	551.10168	182.06554	
494	1.232	820.74725	1492.70398	-537.06488	183.03186	1442.71375	-85.51372	-114.52641	551.69739	181.57626	94.50137	1435.61792	-461.99457	
495	1.235				182.99084	1443.07800	-86.81725	-114.34750	551.71454	180.84338				101.86938	1438.00671	-467.01151	621.29309	1485.24268	-485.93039	
496	1.237	-4490.41211	198.88580	-257.54034	182.82558	1443.50378	-88.03207	-114.80540	550.67639	180.15779				108.09227	1438.71313	-470.61395	621.66492	1485.89026	-486.00400	
497	1.240				182.59772	1443.84338	-89.27362	-114.59877	551.13165	179.21002	-4429.30811	193.12126	-256.29980	115.39760	1440.47620	-474.97687	
498	1.242	-4406.06006	178.58827	-263.58566	182.75653	1444.50635	-90.96880	-115.03947	551.44196	178.38680				121.68369	1441.98169	-478.66486	91.43822	33.33116	268.42075	
499	1.245				182.76105	1445.13123	-92.10268	-115.11560	551.31140	177.78908	-4365.38916	166.15056	-267.39230	129.27654	1443.66150	-482.95883	
500	1.247				182.76712	1445.63074	-93.57265	-115.34091	551.96417	176.57239				136.76038	1445.34326	-486.92114	
501	1.250	-5.55489	1267.78687	-399.05112	182.79077	1445.93433	-95.03896	-115.81390	552.23120	175.94360	-5032.10156	838.43951	1284.05273				-1753.10999	-825.86615	840.56104	
502	1.253				182.65529	1446.49805	-96.44323	-116.56618	552.40796	174.90120				-6.51684	1258.18506	-398.46155				-5047.69727	839.43329	1284.64746	-3.16737	1234.27502	-308.29623	
503	1.255	-6.41880	1249.77319	-397.57513	183.02948	1447.19055	-97.91772	-117.80152	552.20172	173.89488	-4014.72192	103.59689	-233.51340							-5060.69092	840.33936	1285.56152	-1.76848	1223.16162	-307.76465	
504	1.258	-9.65197	1238.00220	-397.20569				-118.06425	553.23816	173.05145				-3975.24121	91.89447	-238.46310				-5075.16846	841.96051	1286.08362	
505	1.260	-11.23417	1227.59351	-396.63403	-1440.63135	-796.47058	718.69763	-119.29761	552.73291	171.98514										-5091.72607	842.69525	1286.81323	
506	1.263	-13.05054	1216.87158	-396.45441				-119.87517	553.04462	171.13083	
507	1.265	-14.88628	1206.20093	-396.45538	1051.57288	1512.53613	-640.44513	-121.52802	552.29578	170.30099	-896.59802	-980.81799	839.46942	-1423.49011	-814.34558	705.67230	76.37085	36.89447	265.68356	
508	1.268	-17.73763	1194.71216	-395.87289																-524.75592	1077.68384	-31.49304	
509	1.270	-20.40665	1182.82581	-395.10422	
510	1.273	-22.48058	1171.61475	-394.95590	
511	1.275	-25.55908	1159.46277	-394.52756	-3613.44922	46.87807	-259.05597	
512	1.278	-28.44770	1147.47949	-393.76215				-3553.50586	69.34696	-258.35757	279.86728	503.33936	-242.36615	
513	1.280	-31.39628	1135.02820	-393.16827	-3489.80737	88.80949	-257.06009				280.90335	504.29153	-243.14740	81.04904	36.64480	266.24200	
514	1.283	-37.98924	1121.92957	-393.17807							282.30664	506.22137	-244.58398	74.82899	38.66964	264.67041	
515	1.285	-41.13844	1109.10315	-392.50085	-3395.22607	76.62465	-268.17828	-234.75566	1266.14417	-338.56842	282.64990	506.81918	-244.97430	77.27483	38.58420	265.28244	
516	1.288	-44.53101	1095.70959	-391.89203							283.21826	507.88522	-245.78566	81.68909	37.11786	266.78787	-3341.49121	99.80052	-268.60104	
517	1.290	-48.59811	1082.16675	-391.21234	-3282.12524	122.10860	-267.96161	-3235.32520	124.17994	-247.63887	283.96811	509.19971	-246.36536	
518	1.293	-52.71247	1068.22693	-390.57758	-3221.49609	141.92860	-266.98752				284.58398	510.28564	-246.66216	-3172.69434	124.03398	-244.65462	
519	1.295	-56.83617	1054.00757	-389.99451				-3119.48071	121.99449	-244.95110	284.95862	510.76016	-246.61646	
520	1.298	-61.31389	1039.65955	-389.55624	-3095.98560	113.88980	-255.26112				285.52017	511.30127	-246.40840	
521	1.300	-66.14837	1024.81580	-389.34995				-3066.87524	141.73022	-247.29375	285.65948	511.56097	-246.16310	
522	1.303	-71.45029	1010.38214	-388.89371	-3014.18823	161.70374	-247.25920				285.85388	512.31995	-245.98251	-2963.58691	179.94759	-254.44431	-471.45435	806.95538	-130.43338	
523	1.305				-2958.52026	181.23846	-246.99020				285.86639	512.52484	-245.59477	-2901.80273	180.98177	-252.79857	
524	1.308				-2898.06250	198.44960	-246.61064							-2847.21558	179.29836	-251.64247	
525	1.310	
526	1.313	-2800.20703	184.67270	-261.90439	
527	1.315				-2749.76367	206.18282	-263.33295	-560.44104	-267.61908	324.70642	
528	1.317	-535.48718	-227.76865	305.71741	-2696.04932	228.82004	-263.88306				-514.07104	809.74500	-253.81091	-597.10223	661.82458	-95.83357	
529	1.320				-2636.30688	249.87122	-263.43365	-617.61237	637.83337	-91.15772							-1704.53662	876.69244	101.31125	
530	1.322	-189.33093	805.61340	-347.50119	-2573.69800	268.59229	-262.31619				-638.82886	614.07861	-85.86243	
531	1.325							-182.02965	810.54224	-355.16528				-508.93896	-189.34616	285.56561	-662.31354	590.49487	-79.32840	
532	1.327	-2472.71875	251.00272	-268.41202	-647.26080	839.89490	-211.06027	
533	1.330							-2375.38525	300.38248	-250.01265	-2419.48584	272.77142	-272.60645	-656.15710	846.21320	-208.57869	
534	1.332	-2312.12988	303.24915	-248.02812	-2326.90259	285.96939	-281.16788										-666.61658	852.39819	-205.51331	
535	1.335							-2306.49927	314.63861	-267.60962	-2258.80933	299.07230	-249.44572	-674.72260	858.47998	-203.04034	
536	1.337	-685.12946	864.52661	-199.95609							-2202.92505	297.18518	-248.90926	
537	1.340				808.72473	1512.50842	-671.84564	-693.51227	870.37561	-197.37512	-2174.96460	287.00266	-258.15536	
538	1.342	808.66870	1513.15881	-672.51379										-2110.55664	348.92734	-255.16995	-2150.41284	308.75894	-249.32973	-702.31451	876.72888	-194.80861	
539	1.345				808.95013	1514.28845	-672.74609	-2047.48438	352.45844	-254.02840	-2099.55493	327.57974	-249.54024							-710.92047	882.62390	-192.22623	
540	1.347	-1987.47205	351.57153	-252.15604	809.42029	1515.38733	-673.25220				-2043.78235	346.30301	-249.51686	-876.19226	220.33388	201.12631				-719.06732	888.85883	-189.49196	
